# xmcd
#
# Track frame offsets:
# 150
# 7672
# 17982
# 31584
# 39489
# 57782
# 68553
# 90758
# 107331
# 125175
# 141653
# 167327
# 188673
# 209265
#
# Disc length: 3086 seconds
#
# Revision: 0
# Processed by: cddbd v1.5.1PL0 Copyright (c) Steve Scherf et al.
# Submitted via: Audion 3.0.2 (http://www.panic.com/audion/)
#
DISCID=a60c0c0e
DTITLE=The Pine Box Boys - Arkansas Killing Time
DYEAR=1900
DGENRE=
TTITLE0=Skin And Bones Lady
TTITLE1=56, AR
TTITLE2=Arkansas Killing Time
TTITLE3=The Hateful Thing
TTITLE4=Weary Friend
TTITLE5=I Kept Her Heart
TTITLE6=Just A Crush
TTITLE7=I Had To Cut Her
TTITLE8=Bucket Of Guts
TTITLE9=New Moon
TTITLE10=The Beauty In Her Face
TTITLE11=Your Shadow
TTITLE12=When The Moon Moves The Waters
TTITLE13=Bakersfield
EXTD=
EXTT0=
EXTT1=
EXTT2=
EXTT3=
EXTT4=
EXTT5=
EXTT6=
EXTT7=
EXTT8=
EXTT9=
EXTT10=
EXTT11=
EXTT12=
EXTT13=
PLAYORDER=
